<svg width="24" height="22" viewBox="0 0 24 22" fill="none" xmlns="http://www.w3.org/2000/svg">
<path d="M22.9567 17.2618C22.9567 19.0355 21.6015 20.3908 19.8278 20.3908H9.39C4.0695 20.3908 1.0425 17.5745 1.0425 12.5668V4.73827C1.0425 2.96452 2.39775 1.60927 4.1715 1.60927H7.30425C7.824 1.60927 8.44875 1.71502 8.8665 2.02702C9.28425 1.71427 9.90975 1.60927 10.4333 1.60927H13.5623C14.0858 1.60927 14.7105 1.71502 15.129 2.02702C15.5468 1.71427 16.1722 1.60927 16.6957 1.60927H19.8248C21.5985 1.60927 22.9538 2.96452 22.9538 4.73827V17.2618H22.9567ZM19.8285 0.566772H16.6957C16.176 0.566772 15.6525 0.672523 15.129 0.879523C14.6335 0.674795 14.1029 0.568566 13.5668 0.566772H10.434C9.91425 0.566772 9.39075 0.672523 8.87175 0.879523C8.37458 0.675139 7.84254 0.568935 7.305 0.566772H4.176C3.06983 0.569146 2.0096 1.00936 1.22707 1.79119C0.444538 2.57302 0.0033675 3.63286 0 4.73902L0 12.5675C0 18.0988 3.54675 21.4385 9.39075 21.4385H19.824C20.9306 21.4354 21.9909 20.9944 22.7734 20.2119C23.5558 19.4294 23.9968 18.3691 24 17.2625V4.73902C23.9966 3.63286 23.5555 2.57302 22.7729 1.79119C21.9904 1.00936 20.9302 0.569146 19.824 0.566772H19.8285ZM9.39075 17.2618H19.824V4.73827H16.695V15.176H13.566V4.73827H10.4333V15.176H9.39C8.34675 15.176 7.30425 14.3398 7.30425 12.5668V4.73827H4.1715V12.5668C4.1715 15.6958 5.6325 17.2618 9.39 17.2618H9.39075Z" fill="#501214"/>
</svg>
