<svg width="54" height="55" viewBox="0 0 54 55" fill="none" xmlns="http://www.w3.org/2000/svg">
<rect width="54" height="55" rx="27" fill="white"/>
<path d="M15.403 34.6621V34.6621C15.403 37.8915 18.4187 40.3166 21.5605 39.569L22.0186 39.4599L23.5311 40.9168C25.4675 42.7819 28.5321 42.7819 30.4684 40.9168L31.981 39.4599L32.4391 39.569C35.5808 40.3166 38.5966 37.8915 38.5966 34.6621V34.6621L39.0911 34.5402C42.2436 33.7635 43.8312 30.235 42.3215 27.3605L41.9434 26.6406L42.3215 25.9207C43.8312 23.0463 42.2436 19.5178 39.0911 18.741L38.5966 18.6192V18.6192C38.5966 15.3897 35.5808 12.9647 32.4391 13.7123L31.981 13.8213L30.4684 12.3644C28.5321 10.4993 25.4675 10.4993 23.5311 12.3644L22.0186 13.8213L21.5605 13.7123C18.4187 12.9647 15.403 15.3897 15.403 18.6192V18.6192L14.9085 18.741C11.756 19.5178 10.1684 23.0463 11.6781 25.9207L12.0562 26.6406L11.6781 27.3605C10.1684 30.235 11.756 33.7635 14.9085 34.5402L15.403 34.6621ZM15.0138 25.2163L13.535 22.2926L16.1813 21.6928C16.9596 21.5429 17.5693 21.1805 18.0103 20.6058C18.4513 20.0311 18.6719 19.3688 18.6719 18.6192V16.3702L21.1625 17.0449H22.0186C22.9007 17.0449 23.679 16.72 24.3535 16.0703L26.9998 13.5214L29.6461 16.0703C30.3206 16.72 31.0989 17.0449 31.981 17.0449C32.2923 17.0449 32.5777 16.9949 32.8371 16.8949L35.3277 16.3702V18.6192C35.3277 19.3688 35.5482 20.0311 35.9893 20.6058C36.4303 21.1805 37.04 21.5429 37.8183 21.6928L40.4646 22.2926L38.9858 25.2163C38.4669 26.1658 38.4669 27.1154 38.9858 28.065L40.4646 30.9887L37.8183 31.5884C37.04 31.7384 36.4303 32.1007 35.9893 32.6754C35.5482 33.2502 35.3277 33.9124 35.3277 34.6621V36.9111L32.8371 36.2364H31.981C31.0989 36.2364 30.3206 36.5612 29.6461 37.2109L26.9998 39.7598L24.3535 37.2109C23.679 36.5612 22.9007 36.2364 22.0186 36.2364C21.7073 36.2364 21.4219 36.2863 21.1625 36.3863L18.6719 36.9111V34.6621C18.6719 33.9124 18.4513 33.2502 18.0103 32.6754C17.5693 32.1007 16.9596 31.7384 16.1813 31.5884L13.535 30.9887L15.0138 28.065C15.5327 27.1154 15.5327 26.1658 15.0138 25.2163ZM25.3653 32.1132L33.1485 24.5416C33.8749 23.8419 33.8749 23.0922 33.1485 22.2926C32.3701 21.6428 31.5918 21.6428 30.8135 22.2926L25.3653 27.6152L23.1861 25.5161C22.4078 24.8664 21.6294 24.8664 20.8511 25.5161C20.1766 26.2658 20.1766 27.0155 20.8511 27.7651L25.3653 32.1132Z" fill="#009688"/>
</svg>
