<svg width="20" height="21" viewBox="0 0 20 21" fill="none" xmlns="http://www.w3.org/2000/svg">
<path d="M19.4501 17.2994L14.8614 12.7107C14.177 13.7738 13.2732 14.6782 12.2101 15.3619L16.7995 19.9507C17.532 20.6832 18.7189 20.6832 19.4501 19.9507C20.1833 19.2201 20.1833 18.0332 19.4501 17.2994Z" fill="#595959"/>
<path d="M15.0001 8C15.0001 3.85813 11.642 0.5 7.50006 0.5C3.35815 0.5 0 3.85813 0 8C0 12.1419 3.35815 15.5 7.50006 15.5C11.642 15.5 15.0001 12.1419 15.0001 8ZM7.50006 13.625C4.39754 13.625 1.87502 11.1025 1.87502 8C1.87502 4.89813 4.39754 2.375 7.50006 2.375C10.602 2.375 13.1251 4.89813 13.1251 8C13.1251 11.1025 10.602 13.625 7.50006 13.625Z" fill="#595959"/>
<path d="M3.125 8H4.37501C4.37501 6.27688 5.77627 4.875 7.50003 4.875V3.625C5.08752 3.625 3.125 5.58875 3.125 8Z" fill="#595959"/>
</svg>
