<svg width="23" height="23" viewBox="0 0 23 23" fill="none" xmlns="http://www.w3.org/2000/svg">
<path d="M20.4884 9.70463H19.75V9.66659H11.5V13.3333H16.6806C15.9248 15.4677 13.8939 16.9999 11.5 16.9999C8.46267 16.9999 6.00004 14.5373 6.00004 11.4999C6.00004 8.46254 8.46267 5.99992 11.5 5.99992C12.9021 5.99992 14.1776 6.52884 15.1488 7.39279L17.7416 4.8C16.1045 3.27421 13.9145 2.33325 11.5 2.33325C6.43775 2.33325 2.33337 6.43763 2.33337 11.4999C2.33337 16.5622 6.43775 20.6666 11.5 20.6666C16.5623 20.6666 20.6667 16.5622 20.6667 11.4999C20.6667 10.8853 20.6035 10.2853 20.4884 9.70463Z" fill="#FFC107"/>
<path d="M3.39026 7.23329L6.40197 9.442C7.21688 7.42442 9.19047 5.99992 11.5 5.99992C12.9021 5.99992 14.1776 6.52884 15.1488 7.39279L17.7416 4.8C16.1044 3.27421 13.9145 2.33325 11.5 2.33325C7.97909 2.33325 4.92568 4.32104 3.39026 7.23329Z" fill="#FF3D00"/>
<path d="M11.4999 20.6667C13.8676 20.6667 16.019 19.7606 17.6457 18.2871L14.8086 15.8863C13.8573 16.6098 12.6949 17.001 11.4999 17.0001C9.11561 17.0001 7.09115 15.4798 6.32848 13.3582L3.33923 15.6613C4.85632 18.6299 7.93723 20.6667 11.4999 20.6667Z" fill="#4CAF50"/>
<path d="M20.4884 9.70479H19.75V9.66675H11.5V13.3334H16.6805C16.319 14.3493 15.6678 15.237 14.8073 15.8868L14.8087 15.8859L17.6458 18.2866C17.445 18.469 20.6667 16.0834 20.6667 11.5001C20.6667 10.8855 20.6034 10.2855 20.4884 9.70479Z" fill="#1976D2"/>
</svg>
