<svg width="36" height="36" viewBox="0 0 36 36" fill="none" xmlns="http://www.w3.org/2000/svg">
<g filter="url(#filter0_d_322_6629)">
<rect x="1" y="1" width="30" height="30" rx="15" fill="white"/>
<path d="M14.4218 6C14.096 6.00001 13.7767 6.09053 13.4994 6.26145C13.2221 6.43237 12.9978 6.67697 12.8514 6.96797L12.16 8.34375H10.1796C9.40256 8.34375 8.65739 8.65241 8.10796 9.20184C7.55854 9.75126 7.24988 10.4964 7.24988 11.2734V20.6484C7.24988 21.4254 7.55854 22.1706 8.10796 22.72C8.65739 23.2695 9.40256 23.5781 10.1796 23.5781H14.2811C14.2905 23.4445 14.3116 23.3086 14.3456 23.1715L14.785 21.416C14.921 20.8723 15.1776 20.366 15.5339 19.9359C14.4195 19.6666 13.4424 18.9985 12.7871 18.0577C12.1319 17.117 11.8439 15.9688 11.9777 14.8302C12.1114 13.6916 12.6576 12.6414 13.513 11.8781C14.3684 11.1148 15.4738 10.6912 16.6202 10.6875C17.6711 10.6877 18.6915 11.0408 19.5177 11.6902C20.3439 12.3396 20.928 13.2476 21.1764 14.2687L21.4296 14.0168C22.0293 13.4171 22.8334 13.0662 23.6809 13.0343C24.5284 13.0023 25.3567 13.2917 25.9999 13.8445V11.2723C25.9999 10.4953 25.6912 9.75009 25.1418 9.20066C24.5924 8.65124 23.8472 8.34258 23.0702 8.34258H21.0909L20.4053 6.97148C20.2593 6.67948 20.0348 6.43392 19.757 6.26233C19.4793 6.09074 19.1592 5.9999 18.8327 6H14.4218Z" fill="#009688"/>
<path d="M20.1364 15.3106C20.1238 14.6209 19.9087 13.9501 19.5177 13.3818C19.1267 12.8135 18.5771 12.3728 17.9374 12.1145C17.2977 11.8563 16.5962 11.7919 15.9202 11.9295C15.2443 12.0671 14.6237 12.4005 14.1358 12.8882C13.648 13.3759 13.3144 13.9964 13.1766 14.6723C13.0388 15.3482 13.1029 16.0498 13.3609 16.6895C13.6189 17.3293 14.0595 17.879 14.6277 18.2702C15.1959 18.6614 15.8666 18.8768 16.5563 18.8895L20.1376 15.3106H20.1364Z" fill="#009688"/>
<path d="M22.2581 14.8455L16.598 20.5057C16.2681 20.8354 16.034 21.2485 15.9206 21.701L15.4812 23.4565C15.4378 23.631 15.4404 23.8139 15.4886 23.9872C15.5368 24.1605 15.629 24.3184 15.7563 24.4455C15.8835 24.5727 16.0415 24.6648 16.2149 24.7128C16.3882 24.7608 16.5711 24.7632 16.7456 24.7197L18.5011 24.2815C18.9534 24.1678 19.3671 23.9346 19.6964 23.6041L25.3565 17.944C25.7622 17.5318 25.9885 16.9761 25.9861 16.3978C25.9838 15.8196 25.753 15.2657 25.344 14.8569C24.935 14.4481 24.3811 14.2175 23.8028 14.2153C23.2246 14.2132 22.6689 14.4397 22.2569 14.8455H22.2581Z" fill="#009688"/>
</g>
<defs>
<filter id="filter0_d_322_6629" x="0" y="0" width="36" height="36" filterUnits="userSpaceOnUse" color-interpolation-filters="sRGB">
<feFlood flood-opacity="0" result="BackgroundImageFix"/>
<feColorMatrix in="SourceAlpha" type="matrix" values="0 0 0 0 0 0 0 0 0 0 0 0 0 0 0 0 0 0 127 0" result="hardAlpha"/>
<feOffset dx="2" dy="2"/>
<feGaussianBlur stdDeviation="1.5"/>
<feComposite in2="hardAlpha" operator="out"/>
<feColorMatrix type="matrix" values="0 0 0 0 0.625 0 0 0 0 0.625 0 0 0 0 0.625 0 0 0 0.2 0"/>
<feBlend mode="normal" in2="BackgroundImageFix" result="effect1_dropShadow_322_6629"/>
<feBlend mode="normal" in="SourceGraphic" in2="effect1_dropShadow_322_6629" result="shape"/>
</filter>
</defs>
</svg>
