<svg width="183" height="40" viewBox="0 0 183 40" fill="none" xmlns="http://www.w3.org/2000/svg">
<path fill-rule="evenodd" clip-rule="evenodd" d="M9.34633 0.00355369H32.6766V4.20647H9.32253C9.32253 4.20647 8.13534 4.1819 6.85104 4.90556C5.56673 5.62857 4.18597 7.17031 4.18597 9.53659C4.18597 11.339 4.96285 12.6712 5.99634 13.5533C7.02982 14.4354 8.31991 14.8667 9.34697 14.8667H15.7569V11.0091H14.5659H13.3748V6.80169H32.6773V19.0832H28.488V11.0085H26.3001V19.0819H22.1205V11.0085H19.9365V19.0819H9.66274C9.66274 19.0819 8.68134 19.1304 7.26263 18.7702C5.33328 18.28 3.66569 17.3662 2.30421 15.7566C0.946593 14.1515 0.458467 12.7248 0.201864 11.37C-0.0547389 10.0158 0.00635771 9.54241 0.00635771 9.54241C0.00635771 9.54241 -0.0161516 8.2904 0.259102 7.2311C0.534355 6.17245 1.10801 4.76264 2.29906 3.35606C3.82389 1.55629 5.58538 0.71816 6.96615 0.330138C8.34692 -0.057883 9.34633 0.00355369 9.34633 0.00355369Z" fill="#ED1C24"/>
<path fill-rule="evenodd" clip-rule="evenodd" d="M16.2991 22.1409C16.2991 22.1409 15.3839 20.7615 13.6719 20.7615C11.9593 20.7615 0.0057373 20.7615 0.0057373 20.7615V24.4186H16.2984H32.676V20.7615C32.676 20.7615 20.6375 20.7615 18.9249 20.7615C17.2136 20.7615 16.2991 22.1409 16.2991 22.1409Z" fill="#ED1C24"/>
<path fill-rule="evenodd" clip-rule="evenodd" d="M51.7803 22.3766H55.4069V12.0662H47.7879V16.0803H50.3192C50.0323 17.4707 48.6754 18.153 47.3448 18.153C43.8481 18.153 43.1439 15.0831 43.1439 13.3254C43.1439 12.0397 43.0134 7.86784 46.9531 7.86784C48.3101 7.86784 49.458 8.83854 49.6664 10.2031H55.1721C54.3373 5.79516 51.3366 3.198 46.5878 3.198C42.387 3.198 37.4028 6.05772 37.4028 13.1941C37.4028 18.5203 40.7953 22.8235 46.3003 22.8235C48.3358 22.8235 50.3185 22.1147 51.597 20.4624L51.7803 22.3766Z" fill="#ED1C24"/>
<path fill-rule="evenodd" clip-rule="evenodd" d="M56.9163 22.3771H62.6568V15.8441H65.7096C67.9798 15.8441 68.1361 17.7072 68.293 19.4915C68.3709 20.4622 68.4757 21.4329 68.7625 22.3771H74.503C73.9814 21.5118 73.955 19.2813 73.8766 18.363C73.6682 16.0277 72.7029 14.2959 71.1369 13.6925C73.0418 12.9844 73.9287 10.9376 73.9287 8.99615C73.9287 5.45416 71.1105 3.64404 67.8493 3.64404H56.917V22.3771H56.9163ZM62.6568 8.10435H65.3437C67.5354 8.10435 68.1876 8.78662 68.1876 9.9675C68.1876 11.6463 66.7264 11.83 65.6569 11.83H62.6568V8.10435Z" fill="#ED1C24"/>
<path fill-rule="evenodd" clip-rule="evenodd" d="M82.5238 15.6869L84.3239 9.91447H84.3759L86.0461 15.6869H82.5238ZM74.67 22.3771H80.4362L81.271 19.701H87.1941L87.9767 22.3771H93.9256L87.142 3.64404H81.5321L74.67 22.3771Z" fill="#ED1C24"/>
<path fill-rule="evenodd" clip-rule="evenodd" d="M94.9308 22.3771H100.358V10.3607H100.41L103.646 22.3771H107.924L111.16 10.3607H111.212V22.3771H116.639V3.64404H108.472L105.811 14.6639H105.759L103.098 3.64404H94.9308V22.3771Z" fill="#ED1C24"/>
<path fill-rule="evenodd" clip-rule="evenodd" d="M118.979 22.3771H134.686V17.576H124.719V15.2407H133.513V10.7804H124.719V8.44581H134.399V3.64404H118.979V22.3771Z" fill="#ED1C24"/>
<path fill-rule="evenodd" clip-rule="evenodd" d="M136.737 22.3771H145.033C151.53 22.3771 154.557 18.7303 154.557 12.9844C154.557 8.2615 152.365 3.64404 146.156 3.64404H136.737V22.3771ZM142.476 8.44581H144.303C148.452 8.44581 148.816 11.7252 148.816 12.9055C148.816 14.6632 148.295 17.576 144.72 17.576H142.476V8.44581H142.476Z" fill="#ED1C24"/>
<path d="M162.166 3.64404H156.426V22.3771H162.166V3.64404Z" fill="#ED1C24"/>
<path fill-rule="evenodd" clip-rule="evenodd" d="M171.018 15.6869L172.818 9.91447H172.87L174.54 15.6869H171.018ZM163.165 22.3771H168.931L169.766 19.701H175.689L176.472 22.3771H182.42L175.637 3.64404H170.027L163.165 22.3771Z" fill="#ED1C24"/>
<path d="M19.6844 31.6279H22.5253C22.9214 31.6279 23.2958 31.6639 23.6487 31.7359C24.0015 31.8079 24.3076 31.9339 24.5668 32.1139C24.8333 32.2868 25.0421 32.5244 25.1933 32.8268C25.3517 33.1221 25.4309 33.4965 25.4309 33.9502C25.4309 34.3967 25.3589 34.7711 25.2149 35.0736C25.0709 35.376 24.8729 35.6173 24.6208 35.7973C24.3688 35.9773 24.0699 36.107 23.7243 36.1862C23.3786 36.2582 23.0042 36.2942 22.6009 36.2942H21.3695V39.2755H19.6844V31.6279ZM21.3695 34.8684H22.4929C22.6441 34.8684 22.7881 34.854 22.925 34.8252C23.069 34.7964 23.195 34.7495 23.303 34.6847C23.4182 34.6127 23.5082 34.5191 23.5731 34.4039C23.6451 34.2815 23.6811 34.1302 23.6811 33.9502C23.6811 33.7558 23.6343 33.601 23.5407 33.4857C23.4542 33.3633 23.339 33.2697 23.195 33.2049C23.0582 33.1401 22.9034 33.1005 22.7305 33.0861C22.5577 33.0645 22.3921 33.0537 22.2336 33.0537H21.3695V34.8684Z" fill="#ED1C24"/>
<path d="M27.9681 33.1185H25.7861V31.6279H31.8351V33.1185H29.6531V39.2755H27.9681V33.1185Z" fill="#ED1C24"/>
<path d="M42.8109 38.7354C42.314 38.9946 41.7955 39.1818 41.2554 39.2971C40.7153 39.4123 40.1644 39.4699 39.6028 39.4699C39.0051 39.4699 38.4542 39.3763 37.9501 39.189C37.446 39.0018 37.0104 38.7354 36.6431 38.3897C36.2758 38.0369 35.9878 37.612 35.779 37.1151C35.5773 36.6182 35.4765 36.0637 35.4765 35.4517C35.4765 34.8396 35.5773 34.2851 35.779 33.7882C35.9878 33.2913 36.2758 32.8701 36.6431 32.5244C37.0104 32.1715 37.446 31.9015 37.9501 31.7143C38.4542 31.527 39.0051 31.4334 39.6028 31.4334C40.2149 31.4334 40.7765 31.509 41.2878 31.6603C41.8063 31.8043 42.26 32.0563 42.6488 32.4164L41.4607 33.7126C41.2302 33.4749 40.971 33.2949 40.6829 33.1725C40.3949 33.0501 40.0348 32.9889 39.6028 32.9889C39.2427 32.9889 38.9151 33.0501 38.6198 33.1725C38.3318 33.2949 38.0833 33.4677 37.8745 33.691C37.6657 33.907 37.5036 34.1663 37.3884 34.4687C37.2804 34.7711 37.2264 35.0988 37.2264 35.4517C37.2264 35.8117 37.2804 36.143 37.3884 36.4454C37.5036 36.7407 37.6657 36.9999 37.8745 37.2231C38.0833 37.4392 38.3318 37.6084 38.6198 37.7308C38.9151 37.8532 39.2427 37.9144 39.6028 37.9144C39.97 37.9144 40.2869 37.8748 40.5533 37.7956C40.8198 37.7092 41.0322 37.6228 41.1906 37.5364V36.2942H39.8188V34.7387H42.8109V38.7354Z" fill="#ED1C24"/>
<path d="M44.0889 34.0258H45.7092V34.8684H45.7308C45.9036 34.5443 46.1088 34.3031 46.3465 34.1446C46.5841 33.979 46.883 33.8962 47.243 33.8962C47.3366 33.8962 47.4302 33.8998 47.5239 33.907C47.6175 33.9142 47.7039 33.9286 47.7831 33.9502V35.43C47.6679 35.394 47.5527 35.3688 47.4374 35.3544C47.3294 35.3328 47.2142 35.322 47.0918 35.322C46.7821 35.322 46.5373 35.3652 46.3573 35.4517C46.1772 35.5381 46.0368 35.6605 45.936 35.8189C45.8424 35.9701 45.7812 36.1538 45.7524 36.3698C45.7236 36.5858 45.7092 36.8235 45.7092 37.0827V39.2755H44.0889V34.0258Z" fill="#ED1C24"/>
<path d="M51.7822 38.6165H51.7606C51.5805 38.8974 51.3393 39.099 51.0369 39.2214C50.7416 39.3439 50.4284 39.4051 50.0971 39.4051C49.8523 39.4051 49.6146 39.3691 49.3842 39.2971C49.161 39.2322 48.9629 39.1314 48.7901 38.9946C48.6173 38.8578 48.4805 38.6886 48.3796 38.4869C48.2788 38.2853 48.2284 38.0513 48.2284 37.7848C48.2284 37.4824 48.2824 37.2267 48.3904 37.0179C48.5057 36.8091 48.6569 36.6362 48.8441 36.4994C49.0385 36.3626 49.2582 36.2582 49.503 36.1862C49.7479 36.107 49.9999 36.0493 50.2591 36.0133C50.5256 35.9773 50.7884 35.9557 51.0477 35.9485C51.3141 35.9413 51.5589 35.9377 51.7822 35.9377C51.7822 35.6497 51.6778 35.4228 51.4689 35.2572C51.2673 35.0844 51.0261 34.998 50.7452 34.998C50.4788 34.998 50.2339 35.0556 50.0107 35.1708C49.7947 35.2788 49.6002 35.43 49.4274 35.6245L48.5633 34.7387C48.8657 34.4579 49.2186 34.2491 49.6218 34.1122C50.0251 33.9682 50.4428 33.8962 50.8748 33.8962C51.3501 33.8962 51.739 33.9574 52.0414 34.0798C52.3511 34.1951 52.5959 34.3679 52.7759 34.5983C52.9632 34.8288 53.0928 35.1132 53.1648 35.4517C53.2368 35.7829 53.2728 36.1682 53.2728 36.6074V39.2755H51.7822V38.6165ZM51.3825 36.9747C51.2601 36.9747 51.1053 36.9819 50.918 36.9963C50.738 37.0035 50.5616 37.0323 50.3888 37.0827C50.2231 37.1331 50.0791 37.2087 49.9567 37.3095C49.8415 37.4104 49.7839 37.5508 49.7839 37.7308C49.7839 37.9252 49.8667 38.0693 50.0323 38.1629C50.1979 38.2565 50.3708 38.3033 50.5508 38.3033C50.7092 38.3033 50.8604 38.2817 51.0045 38.2385C51.1557 38.1953 51.2889 38.1341 51.4041 38.0549C51.5193 37.9756 51.6093 37.8748 51.6742 37.7524C51.7462 37.63 51.7822 37.486 51.7822 37.3203V36.9747H51.3825Z" fill="#ED1C24"/>
<path d="M54.2893 34.0258H55.8448V34.7387H55.8664C55.9168 34.6379 55.9888 34.5371 56.0824 34.4363C56.176 34.3355 56.2877 34.2455 56.4173 34.1663C56.5469 34.087 56.6945 34.0222 56.8601 33.9718C57.0258 33.9214 57.2058 33.8962 57.4002 33.8962C57.7675 33.8962 58.0915 33.9718 58.3724 34.123C58.6604 34.2743 58.8765 34.5119 59.0205 34.836C59.2077 34.4975 59.4346 34.2563 59.701 34.1122C59.9674 33.9682 60.2951 33.8962 60.6839 33.8962C61.0368 33.8962 61.332 33.9574 61.5697 34.0798C61.8145 34.1951 62.0054 34.3571 62.1422 34.5659C62.2862 34.7675 62.387 35.0088 62.4446 35.2896C62.5094 35.5633 62.5418 35.8585 62.5418 36.1754V39.2755H60.9216V36.2186C60.9216 35.9737 60.8676 35.7649 60.7596 35.5921C60.6587 35.412 60.4751 35.322 60.2087 35.322C60.0214 35.322 59.863 35.3544 59.7334 35.4192C59.611 35.4769 59.5102 35.5597 59.431 35.6677C59.3589 35.7757 59.3049 35.9017 59.2689 36.0457C59.2401 36.1898 59.2257 36.341 59.2257 36.4994V39.2755H57.6055V36.4994C57.6055 36.4058 57.6019 36.2906 57.5947 36.1538C57.5875 36.0169 57.5623 35.8873 57.5191 35.7649C57.4758 35.6425 57.4038 35.5381 57.303 35.4517C57.2094 35.3652 57.069 35.322 56.8818 35.322C56.6729 35.322 56.5037 35.3616 56.3741 35.4409C56.2444 35.5129 56.1436 35.6137 56.0716 35.7433C56.0068 35.8657 55.9636 36.0061 55.942 36.1646C55.9204 36.323 55.9096 36.4886 55.9096 36.6614V39.2755H54.2893V34.0258Z" fill="#ED1C24"/>
<path d="M68.6569 38.3681C68.3976 38.6994 68.07 38.955 67.6739 39.135C67.2778 39.3151 66.8674 39.4051 66.4425 39.4051C66.0392 39.4051 65.6576 39.3403 65.2975 39.2106C64.9447 39.081 64.635 38.8974 64.3686 38.6598C64.1093 38.4149 63.9041 38.1233 63.7529 37.7848C63.6017 37.4464 63.5261 37.0683 63.5261 36.6506C63.5261 36.233 63.6017 35.8549 63.7529 35.5165C63.9041 35.178 64.1093 34.89 64.3686 34.6523C64.635 34.4075 64.9447 34.2203 65.2975 34.0906C65.6576 33.961 66.0392 33.8962 66.4425 33.8962C66.817 33.8962 67.1554 33.961 67.4579 34.0906C67.7675 34.2203 68.0268 34.4075 68.2356 34.6523C68.4516 34.89 68.6172 35.178 68.7325 35.5165C68.8477 35.8549 68.9053 36.233 68.9053 36.6506V37.1583H65.1463C65.2111 37.468 65.3515 37.7164 65.5676 37.9036C65.7836 38.0837 66.05 38.1737 66.3669 38.1737C66.6333 38.1737 66.8566 38.1161 67.0366 38.0009C67.2238 37.8784 67.3859 37.7236 67.5227 37.5364L68.6569 38.3681ZM67.285 36.0565C67.2922 35.7829 67.2022 35.5489 67.015 35.3544C66.8278 35.16 66.5865 35.0628 66.2913 35.0628C66.1113 35.0628 65.9528 35.0916 65.816 35.1492C65.6792 35.2068 65.5604 35.2824 65.4596 35.376C65.3659 35.4625 65.2903 35.5669 65.2327 35.6893C65.1823 35.8045 65.1535 35.9269 65.1463 36.0565H67.285Z" fill="#ED1C24"/>
<path d="M75.3995 39.2755H73.9088V38.5841H73.8872C73.8224 38.6778 73.736 38.775 73.628 38.8758C73.5272 38.9694 73.4048 39.0558 73.2607 39.135C73.1239 39.2142 72.9691 39.2791 72.7963 39.3295C72.6306 39.3799 72.4578 39.4051 72.2778 39.4051C71.8889 39.4051 71.5361 39.3403 71.2192 39.2106C70.9024 39.0738 70.6287 38.8866 70.3983 38.649C70.1751 38.4041 70.0022 38.1161 69.8798 37.7848C69.7574 37.4536 69.6962 37.0899 69.6962 36.6938C69.6962 36.3266 69.7502 35.9773 69.8582 35.6461C69.9734 35.3076 70.1318 35.0088 70.3335 34.7495C70.5423 34.4903 70.7943 34.2851 71.0896 34.1338C71.3848 33.9754 71.7197 33.8962 72.0942 33.8962C72.4326 33.8962 72.7459 33.9502 73.0339 34.0582C73.3291 34.1591 73.5704 34.3355 73.7576 34.5875H73.7792V31.1094H75.3995V39.2755ZM73.9088 36.6506C73.9088 36.2546 73.7936 35.9341 73.5632 35.6893C73.3399 35.4445 73.0231 35.322 72.6126 35.322C72.2022 35.322 71.8817 35.4445 71.6513 35.6893C71.4281 35.9341 71.3164 36.2546 71.3164 36.6506C71.3164 37.0467 71.4281 37.3672 71.6513 37.612C71.8817 37.8568 72.2022 37.9792 72.6126 37.9792C73.0231 37.9792 73.3399 37.8568 73.5632 37.612C73.7936 37.3672 73.9088 37.0467 73.9088 36.6506Z" fill="#ED1C24"/>
<path d="M76.716 34.0258H78.3363V39.2755H76.716V34.0258ZM76.5864 32.3732C76.5864 32.1139 76.6764 31.8943 76.8564 31.7143C77.0437 31.527 77.2669 31.4334 77.5261 31.4334C77.7854 31.4334 78.005 31.527 78.185 31.7143C78.3723 31.8943 78.4659 32.1139 78.4659 32.3732C78.4659 32.6324 78.3723 32.8556 78.185 33.0429C78.005 33.2229 77.7854 33.3129 77.5261 33.3129C77.2669 33.3129 77.0437 33.2229 76.8564 33.0429C76.6764 32.8556 76.5864 32.6324 76.5864 32.3732Z" fill="#ED1C24"/>
<path d="M82.7948 38.6165H82.7732C82.5932 38.8974 82.352 39.099 82.0495 39.2214C81.7543 39.3439 81.441 39.4051 81.1098 39.4051C80.8649 39.4051 80.6273 39.3691 80.3969 39.2971C80.1736 39.2322 79.9756 39.1314 79.8028 38.9946C79.6299 38.8578 79.4931 38.6886 79.3923 38.4869C79.2915 38.2853 79.2411 38.0513 79.2411 37.7848C79.2411 37.4824 79.2951 37.2267 79.4031 37.0179C79.5183 36.8091 79.6695 36.6362 79.8568 36.4994C80.0512 36.3626 80.2708 36.2582 80.5157 36.1862C80.7605 36.107 81.0126 36.0493 81.2718 36.0133C81.5382 35.9773 81.8011 35.9557 82.0603 35.9485C82.3268 35.9413 82.5716 35.9377 82.7948 35.9377C82.7948 35.6497 82.6904 35.4228 82.4816 35.2572C82.2799 35.0844 82.0387 34.998 81.7579 34.998C81.4914 34.998 81.2466 35.0556 81.0234 35.1708C80.8073 35.2788 80.6129 35.43 80.4401 35.6245L79.5759 34.7387C79.8784 34.4579 80.2312 34.2491 80.6345 34.1122C81.0378 33.9682 81.4554 33.8962 81.8875 33.8962C82.3628 33.8962 82.7516 33.9574 83.0541 34.0798C83.3637 34.1951 83.6086 34.3679 83.7886 34.5983C83.9758 34.8288 84.1054 35.1132 84.1774 35.4517C84.2495 35.7829 84.2855 36.1682 84.2855 36.6074V39.2755H82.7948V38.6165ZM82.3952 36.9747C82.2728 36.9747 82.1179 36.9819 81.9307 36.9963C81.7507 37.0035 81.5742 37.0323 81.4014 37.0827C81.2358 37.1331 81.0918 37.2087 80.9693 37.3095C80.8541 37.4104 80.7965 37.5508 80.7965 37.7308C80.7965 37.9252 80.8793 38.0693 81.045 38.1629C81.2106 38.2565 81.3834 38.3033 81.5634 38.3033C81.7219 38.3033 81.8731 38.2817 82.0171 38.2385C82.1683 38.1953 82.3016 38.1341 82.4168 38.0549C82.532 37.9756 82.622 37.8748 82.6868 37.7524C82.7588 37.63 82.7948 37.486 82.7948 37.3203V36.9747H82.3952Z" fill="#ED1C24"/>
<path d="M88.7034 31.6279H91.5443C91.9403 31.6279 92.3148 31.6639 92.6677 31.7359C93.0205 31.8079 93.3266 31.9339 93.5858 32.1139C93.8522 32.2868 94.0611 32.5244 94.2123 32.8268C94.3707 33.1221 94.4499 33.4965 94.4499 33.9502C94.4499 34.3967 94.3779 34.7711 94.2339 35.0736C94.0899 35.376 93.8918 35.6173 93.6398 35.7973C93.3878 35.9773 93.0889 36.107 92.7433 36.1862C92.3976 36.2582 92.0232 36.2942 91.6199 36.2942H90.3885V39.2755H88.7034V31.6279ZM90.3885 34.8684H91.5119C91.6631 34.8684 91.8071 34.854 91.9439 34.8252C92.088 34.7964 92.214 34.7495 92.322 34.6847C92.4372 34.6127 92.5272 34.5191 92.592 34.4039C92.6641 34.2815 92.7001 34.1302 92.7001 33.9502C92.7001 33.7558 92.6533 33.601 92.5596 33.4857C92.4732 33.3633 92.358 33.2697 92.214 33.2049C92.0772 33.1401 91.9223 33.1005 91.7495 33.0861C91.5767 33.0645 91.4111 33.0537 91.2526 33.0537H90.3885V34.8684Z" fill="#ED1C24"/>
<path d="M100.357 39.2755H98.8018V38.5625H98.7801C98.7225 38.6634 98.6469 38.7642 98.5533 38.865C98.4669 38.9658 98.3589 39.0558 98.2293 39.135C98.0996 39.2142 97.952 39.2791 97.7864 39.3295C97.6208 39.3799 97.4407 39.4051 97.2463 39.4051C96.8358 39.4051 96.501 39.3439 96.2417 39.2214C95.9897 39.0918 95.7917 38.9154 95.6477 38.6922C95.5108 38.4689 95.4172 38.2061 95.3668 37.9036C95.3236 37.6012 95.302 37.2735 95.302 36.9207V34.0258H96.9223V36.5966C96.9223 36.7479 96.9259 36.9063 96.9331 37.0719C96.9475 37.2303 96.9799 37.378 97.0303 37.5148C97.0879 37.6516 97.1707 37.7632 97.2787 37.8496C97.3939 37.936 97.556 37.9792 97.7648 37.9792C97.9736 37.9792 98.1428 37.9432 98.2725 37.8712C98.4021 37.792 98.4993 37.6912 98.5641 37.5688C98.6361 37.4392 98.6829 37.2951 98.7045 37.1367C98.7261 36.9783 98.7369 36.8127 98.7369 36.6398V34.0258H100.357V39.2755Z" fill="#ED1C24"/>
<path d="M104.475 35.5705C104.237 35.2752 103.924 35.1276 103.535 35.1276C103.398 35.1276 103.265 35.16 103.136 35.2248C103.006 35.2896 102.941 35.4012 102.941 35.5597C102.941 35.6893 103.006 35.7865 103.136 35.8513C103.272 35.9089 103.442 35.9629 103.643 36.0133C103.852 36.0565 104.072 36.107 104.302 36.1646C104.54 36.215 104.759 36.2978 104.961 36.413C105.17 36.5282 105.339 36.6866 105.469 36.8883C105.606 37.0827 105.674 37.3455 105.674 37.6768C105.674 38.0153 105.598 38.2961 105.447 38.5193C105.303 38.7354 105.116 38.9118 104.885 39.0486C104.655 39.1782 104.396 39.2682 104.108 39.3187C103.82 39.3763 103.535 39.4051 103.254 39.4051C102.887 39.4051 102.516 39.3547 102.142 39.2538C101.767 39.1458 101.451 38.9586 101.191 38.6922L102.174 37.6012C102.325 37.7884 102.491 37.9324 102.671 38.0333C102.858 38.1269 103.074 38.1737 103.319 38.1737C103.506 38.1737 103.676 38.1485 103.827 38.0981C103.978 38.0405 104.054 37.9396 104.054 37.7956C104.054 37.6588 103.985 37.558 103.849 37.4932C103.719 37.4212 103.55 37.3636 103.341 37.3203C103.139 37.2699 102.92 37.2195 102.682 37.1691C102.451 37.1115 102.232 37.0287 102.023 36.9207C101.821 36.8127 101.652 36.6614 101.515 36.467C101.386 36.2654 101.321 35.9989 101.321 35.6677C101.321 35.358 101.382 35.0916 101.505 34.8684C101.634 34.6451 101.8 34.4615 102.001 34.3175C102.21 34.1735 102.448 34.069 102.714 34.0042C102.981 33.9322 103.251 33.8962 103.524 33.8962C103.87 33.8962 104.219 33.9466 104.572 34.0474C104.925 34.1482 105.224 34.3283 105.469 34.5875L104.475 35.5705Z" fill="#ED1C24"/>
<path d="M110.08 35.322H108.654V37.0719C108.654 37.2159 108.661 37.3491 108.676 37.4716C108.69 37.5868 108.722 37.6876 108.773 37.774C108.823 37.8604 108.899 37.9288 109 37.9792C109.108 38.0225 109.248 38.0441 109.421 38.0441C109.507 38.0441 109.619 38.0369 109.756 38.0225C109.9 38.0009 110.008 37.9576 110.08 37.8928V39.243C109.9 39.3079 109.713 39.3511 109.518 39.3727C109.324 39.3943 109.133 39.4051 108.946 39.4051C108.672 39.4051 108.42 39.3763 108.19 39.3187C107.959 39.261 107.758 39.171 107.585 39.0486C107.412 38.919 107.275 38.7534 107.174 38.5517C107.081 38.3501 107.034 38.1053 107.034 37.8172V35.322H105.997V34.0258H107.034V32.4704H108.654V34.0258H110.08V35.322Z" fill="#ED1C24"/>
<path d="M114.198 38.6165H114.176C113.996 38.8974 113.755 39.099 113.452 39.2214C113.157 39.3439 112.844 39.4051 112.513 39.4051C112.268 39.4051 112.03 39.3691 111.8 39.2971C111.577 39.2322 111.379 39.1314 111.206 38.9946C111.033 38.8578 110.896 38.6886 110.795 38.4869C110.694 38.2853 110.644 38.0513 110.644 37.7848C110.644 37.4824 110.698 37.2267 110.806 37.0179C110.921 36.8091 111.072 36.6362 111.26 36.4994C111.454 36.3626 111.674 36.2582 111.919 36.1862C112.163 36.107 112.416 36.0493 112.675 36.0133C112.941 35.9773 113.204 35.9557 113.463 35.9485C113.73 35.9413 113.975 35.9377 114.198 35.9377C114.198 35.6497 114.093 35.4228 113.885 35.2572C113.683 35.0844 113.442 34.998 113.161 34.998C112.894 34.998 112.65 35.0556 112.426 35.1708C112.21 35.2788 112.016 35.43 111.843 35.6245L110.979 34.7387C111.281 34.4579 111.634 34.2491 112.037 34.1122C112.441 33.9682 112.858 33.8962 113.29 33.8962C113.766 33.8962 114.155 33.9574 114.457 34.0798C114.767 34.1951 115.012 34.3679 115.192 34.5983C115.379 34.8288 115.508 35.1132 115.58 35.4517C115.652 35.7829 115.688 36.1682 115.688 36.6074V39.2755H114.198V38.6165ZM113.798 36.9747C113.676 36.9747 113.521 36.9819 113.334 36.9963C113.154 37.0035 112.977 37.0323 112.804 37.0827C112.639 37.1331 112.495 37.2087 112.372 37.3095C112.257 37.4104 112.199 37.5508 112.199 37.7308C112.199 37.9252 112.282 38.0693 112.448 38.1629C112.614 38.2565 112.786 38.3033 112.966 38.3033C113.125 38.3033 113.276 38.2817 113.42 38.2385C113.571 38.1953 113.705 38.1341 113.82 38.0549C113.935 37.9756 114.025 37.8748 114.09 37.7524C114.162 37.63 114.198 37.486 114.198 37.3203V36.9747H113.798Z" fill="#ED1C24"/>
<path d="M116.705 31.1094H118.325V36.0998L120.118 34.0258H122.106L120.021 36.3914L122.16 39.2755H120.118L118.347 36.6182H118.325V39.2755H116.705V31.1094Z" fill="#ED1C24"/>
<path d="M126.002 38.6165H125.98C125.8 38.8974 125.559 39.099 125.256 39.2214C124.961 39.3439 124.648 39.4051 124.317 39.4051C124.072 39.4051 123.834 39.3691 123.604 39.2971C123.38 39.2322 123.182 39.1314 123.01 38.9946C122.837 38.8578 122.7 38.6886 122.599 38.4869C122.498 38.2853 122.448 38.0513 122.448 37.7848C122.448 37.4824 122.502 37.2267 122.61 37.0179C122.725 36.8091 122.876 36.6362 123.064 36.4994C123.258 36.3626 123.478 36.2582 123.722 36.1862C123.967 36.107 124.219 36.0493 124.479 36.0133C124.745 35.9773 125.008 35.9557 125.267 35.9485C125.534 35.9413 125.778 35.9377 126.002 35.9377C126.002 35.6497 125.897 35.4228 125.688 35.2572C125.487 35.0844 125.245 34.998 124.965 34.998C124.698 34.998 124.453 35.0556 124.23 35.1708C124.014 35.2788 123.82 35.43 123.647 35.6245L122.783 34.7387C123.085 34.4579 123.438 34.2491 123.841 34.1122C124.245 33.9682 124.662 33.8962 125.094 33.8962C125.57 33.8962 125.958 33.9574 126.261 34.0798C126.57 34.1951 126.815 34.3679 126.995 34.5983C127.183 34.8288 127.312 35.1132 127.384 35.4517C127.456 35.7829 127.492 36.1682 127.492 36.6074V39.2755H126.002V38.6165ZM125.602 36.9747C125.48 36.9747 125.325 36.9819 125.137 36.9963C124.957 37.0035 124.781 37.0323 124.608 37.0827C124.443 37.1331 124.299 37.2087 124.176 37.3095C124.061 37.4104 124.003 37.5508 124.003 37.7308C124.003 37.9252 124.086 38.0693 124.252 38.1629C124.417 38.2565 124.59 38.3033 124.77 38.3033C124.929 38.3033 125.08 38.2817 125.224 38.2385C125.375 38.1953 125.508 38.1341 125.624 38.0549C125.739 37.9756 125.829 37.8748 125.894 37.7524C125.966 37.63 126.002 37.486 126.002 37.3203V36.9747H125.602Z" fill="#ED1C24"/>
<path d="M138.359 36.3266C138.359 36.7803 138.29 37.1979 138.154 37.5796C138.017 37.9612 137.812 38.2925 137.538 38.5733C137.271 38.8542 136.937 39.0738 136.533 39.2322C136.13 39.3907 135.666 39.4699 135.14 39.4699C134.607 39.4699 134.139 39.3907 133.736 39.2322C133.332 39.0738 132.994 38.8542 132.72 38.5733C132.454 38.2925 132.252 37.9612 132.115 37.5796C131.979 37.1979 131.91 36.7803 131.91 36.3266V31.6279H133.595V36.2618C133.595 36.4994 133.631 36.7191 133.703 36.9207C133.782 37.1223 133.891 37.2987 134.027 37.45C134.164 37.594 134.326 37.7092 134.513 37.7956C134.708 37.8748 134.917 37.9144 135.14 37.9144C135.363 37.9144 135.568 37.8748 135.756 37.7956C135.943 37.7092 136.105 37.594 136.242 37.45C136.378 37.2987 136.483 37.1223 136.555 36.9207C136.634 36.7191 136.674 36.4994 136.674 36.2618V31.6279H138.359V36.3266Z" fill="#ED1C24"/>
<path d="M143.287 35.322H141.861V37.0719C141.861 37.2159 141.868 37.3491 141.882 37.4716C141.897 37.5868 141.929 37.6876 141.98 37.774C142.03 37.8604 142.106 37.9288 142.206 37.9792C142.314 38.0225 142.455 38.0441 142.628 38.0441C142.714 38.0441 142.826 38.0369 142.963 38.0225C143.107 38.0009 143.215 37.9576 143.287 37.8928V39.243C143.107 39.3079 142.919 39.3511 142.725 39.3727C142.531 39.3943 142.34 39.4051 142.152 39.4051C141.879 39.4051 141.627 39.3763 141.396 39.3187C141.166 39.261 140.964 39.171 140.791 39.0486C140.619 38.919 140.482 38.7534 140.381 38.5517C140.287 38.3501 140.241 38.1053 140.241 37.8172V35.322H139.204V34.0258H140.241V32.4704H141.861V34.0258H143.287V35.322Z" fill="#ED1C24"/>
<path d="M147.405 38.6165H147.383C147.203 38.8974 146.962 39.099 146.659 39.2214C146.364 39.3439 146.051 39.4051 145.719 39.4051C145.475 39.4051 145.237 39.3691 145.007 39.2971C144.783 39.2322 144.585 39.1314 144.412 38.9946C144.24 38.8578 144.103 38.6886 144.002 38.4869C143.901 38.2853 143.851 38.0513 143.851 37.7848C143.851 37.4824 143.905 37.2267 144.013 37.0179C144.128 36.8091 144.279 36.6362 144.466 36.4994C144.661 36.3626 144.881 36.2582 145.125 36.1862C145.37 36.107 145.622 36.0493 145.882 36.0133C146.148 35.9773 146.411 35.9557 146.67 35.9485C146.936 35.9413 147.181 35.9377 147.405 35.9377C147.405 35.6497 147.3 35.4228 147.091 35.2572C146.89 35.0844 146.648 34.998 146.368 34.998C146.101 34.998 145.856 35.0556 145.633 35.1708C145.417 35.2788 145.223 35.43 145.05 35.6245L144.186 34.7387C144.488 34.4579 144.841 34.2491 145.244 34.1122C145.647 33.9682 146.065 33.8962 146.497 33.8962C146.972 33.8962 147.361 33.9574 147.664 34.0798C147.973 34.1951 148.218 34.3679 148.398 34.5983C148.586 34.8288 148.715 35.1132 148.787 35.4517C148.859 35.7829 148.895 36.1682 148.895 36.6074V39.2755H147.405V38.6165ZM147.005 36.9747C146.882 36.9747 146.728 36.9819 146.54 36.9963C146.36 37.0035 146.184 37.0323 146.011 37.0827C145.845 37.1331 145.701 37.2087 145.579 37.3095C145.464 37.4104 145.406 37.5508 145.406 37.7308C145.406 37.9252 145.489 38.0693 145.655 38.1629C145.82 38.2565 145.993 38.3033 146.173 38.3033C146.332 38.3033 146.483 38.2817 146.627 38.2385C146.778 38.1953 146.911 38.1341 147.026 38.0549C147.142 37.9756 147.232 37.8748 147.297 37.7524C147.369 37.63 147.405 37.486 147.405 37.3203V36.9747H147.005Z" fill="#ED1C24"/>
<path d="M149.912 34.0258H151.467V34.7387H151.489C151.539 34.6379 151.611 34.5371 151.705 34.4363C151.798 34.3355 151.91 34.2455 152.04 34.1663C152.169 34.087 152.317 34.0222 152.483 33.9718C152.648 33.9214 152.828 33.8962 153.023 33.8962C153.39 33.8962 153.714 33.9718 153.995 34.123C154.283 34.2743 154.499 34.5119 154.643 34.836C154.83 34.4975 155.057 34.2563 155.323 34.1122C155.59 33.9682 155.917 33.8962 156.306 33.8962C156.659 33.8962 156.954 33.9574 157.192 34.0798C157.437 34.1951 157.628 34.3571 157.765 34.5659C157.909 34.7675 158.009 35.0088 158.067 35.2896C158.132 35.5633 158.164 35.8585 158.164 36.1754V39.2755H156.544V36.2186C156.544 35.9737 156.49 35.7649 156.382 35.5921C156.281 35.412 156.097 35.322 155.831 35.322C155.644 35.322 155.485 35.3544 155.356 35.4192C155.233 35.4769 155.133 35.5597 155.053 35.6677C154.981 35.7757 154.927 35.9017 154.891 36.0457C154.862 36.1898 154.848 36.341 154.848 36.4994V39.2755H153.228V36.4994C153.228 36.4058 153.224 36.2906 153.217 36.1538C153.21 36.0169 153.185 35.8873 153.141 35.7649C153.098 35.6425 153.026 35.5381 152.925 35.4517C152.832 35.3652 152.691 35.322 152.504 35.322C152.295 35.322 152.126 35.3616 151.996 35.4409C151.867 35.5129 151.766 35.6137 151.694 35.7433C151.629 35.8657 151.586 36.0061 151.564 36.1646C151.543 36.323 151.532 36.4886 151.532 36.6614V39.2755H149.912V34.0258Z" fill="#ED1C24"/>
<path d="M162.605 38.6165H162.583C162.403 38.8974 162.162 39.099 161.86 39.2214C161.564 39.3439 161.251 39.4051 160.92 39.4051C160.675 39.4051 160.437 39.3691 160.207 39.2971C159.984 39.2322 159.786 39.1314 159.613 38.9946C159.44 38.8578 159.303 38.6886 159.202 38.4869C159.102 38.2853 159.051 38.0513 159.051 37.7848C159.051 37.4824 159.105 37.2267 159.213 37.0179C159.328 36.8091 159.48 36.6362 159.667 36.4994C159.861 36.3626 160.081 36.2582 160.326 36.1862C160.571 36.107 160.823 36.0493 161.082 36.0133C161.348 35.9773 161.611 35.9557 161.87 35.9485C162.137 35.9413 162.382 35.9377 162.605 35.9377C162.605 35.6497 162.501 35.4228 162.292 35.2572C162.09 35.0844 161.849 34.998 161.568 34.998C161.302 34.998 161.057 35.0556 160.833 35.1708C160.617 35.2788 160.423 35.43 160.25 35.6245L159.386 34.7387C159.689 34.4579 160.041 34.2491 160.445 34.1122C160.848 33.9682 161.266 33.8962 161.698 33.8962C162.173 33.8962 162.562 33.9574 162.864 34.0798C163.174 34.1951 163.419 34.3679 163.599 34.5983C163.786 34.8288 163.916 35.1132 163.988 35.4517C164.06 35.7829 164.096 36.1682 164.096 36.6074V39.2755H162.605V38.6165ZM162.205 36.9747C162.083 36.9747 161.928 36.9819 161.741 36.9963C161.561 37.0035 161.384 37.0323 161.212 37.0827C161.046 37.1331 160.902 37.2087 160.779 37.3095C160.664 37.4104 160.607 37.5508 160.607 37.7308C160.607 37.9252 160.689 38.0693 160.855 38.1629C161.021 38.2565 161.194 38.3033 161.374 38.3033C161.532 38.3033 161.683 38.2817 161.827 38.2385C161.978 38.1953 162.112 38.1341 162.227 38.0549C162.342 37.9756 162.432 37.8748 162.497 37.7524C162.569 37.63 162.605 37.486 162.605 37.3203V36.9747H162.205Z" fill="#ED1C24"/>
</svg>
