<svg width="36" height="65" viewBox="0 0 36 65" fill="none" xmlns="http://www.w3.org/2000/svg">
<path fill-rule="evenodd" clip-rule="evenodd" d="M9.34633 20.0036H32.6766V24.2065H9.32253C9.32253 24.2065 8.13534 24.1819 6.85104 24.9056C5.56673 25.6286 4.18597 27.1703 4.18597 29.5366C4.18597 31.339 4.96285 32.6712 5.99634 33.5533C7.02982 34.4354 8.31991 34.8667 9.34697 34.8667H15.7569V31.0091H14.5659H13.3748V26.8017H32.6773V39.0832H28.488V31.0085H26.3001V39.0819H22.1205V31.0085H19.9365V39.0819H9.66274C9.66274 39.0819 8.68134 39.1304 7.26263 38.7702C5.33328 38.28 3.66569 37.3662 2.30421 35.7566C0.946593 34.1515 0.458467 32.7248 0.201864 31.37C-0.0547389 30.0158 0.00635771 29.5424 0.00635771 29.5424C0.00635771 29.5424 -0.0161516 28.2904 0.259102 27.2311C0.534355 26.1724 1.10801 24.7626 2.29906 23.3561C3.82389 21.5563 5.58538 20.7182 6.96615 20.3301C8.34692 19.9421 9.34633 20.0036 9.34633 20.0036Z" fill="#ED1C24"/>
<path fill-rule="evenodd" clip-rule="evenodd" d="M16.2992 42.1409C16.2992 42.1409 15.384 40.7615 13.6721 40.7615C11.9595 40.7615 0.00585938 40.7615 0.00585938 40.7615V44.4186H16.2986H32.6761V40.7615C32.6761 40.7615 20.6377 40.7615 18.925 40.7615C17.2137 40.7615 16.2992 42.1409 16.2992 42.1409Z" fill="#ED1C24"/>
</svg>
